<svg width="24" height="24" viewBox="0 0 24 24" fill="none" xmlns="http://www.w3.org/2000/svg">
<g clip-path="url(#clip0_173_4820)">
<path d="M3.68555 22.6289L15.1371 18.3603C15.476 18.2405 15.7794 18.0375 16.0194 17.7697C16.2593 17.502 16.428 17.1783 16.5099 16.8282C16.5919 16.4782 16.5845 16.1132 16.4883 15.7668C16.3922 15.4204 16.2105 15.1037 15.9599 14.846L8.77706 7.66311C8.51173 7.41442 8.1879 7.23675 7.83559 7.14657C7.48329 7.05639 7.11393 7.05662 6.76166 7.14722C6.40955 7.23783 6.08589 7.4159 5.82086 7.66491C5.55583 7.91393 5.35801 8.22583 5.24555 8.57169L0.994118 20.0232C0.876175 20.3941 0.863832 20.7907 0.958975 21.1683C1.05412 21.5458 1.25263 21.8893 1.5324 22.16C1.812 22.4309 2.16189 22.6183 2.54229 22.7011C2.92269 22.7839 3.31869 22.7588 3.68555 22.6289Z" stroke="#F4F4F4" style="stroke:#F4F4F4;stroke:color(display-p3 0.9569 0.9569 0.9569);stroke-opacity:1;" stroke-width="1.6" stroke-linecap="round" stroke-linejoin="round"/>
<path d="M20.4857 12.2231C19.7244 11.7983 18.8329 11.67 17.9828 11.8631" stroke="#F4F4F4" style="stroke:#F4F4F4;stroke:color(display-p3 0.9569 0.9569 0.9569);stroke-opacity:1;" stroke-width="1.6" stroke-linecap="round" stroke-linejoin="round"/>
<path d="M16.5772 7.33728C17.0626 6.60545 17.2638 5.72139 17.1429 4.85156" stroke="#F4F4F4" style="stroke:#F4F4F4;stroke:color(display-p3 0.9569 0.9569 0.9569);stroke-opacity:1;" stroke-width="1.6" stroke-linecap="round" stroke-linejoin="round"/>
<path d="M12.6343 1.23438C13.2352 3.07495 13.1561 5.06997 12.4115 6.85723" stroke="#F4F4F4" style="stroke:#F4F4F4;stroke:color(display-p3 0.9569 0.9569 0.9569);stroke-opacity:1;" stroke-width="1.6" stroke-linecap="round" stroke-linejoin="round"/>
<path d="M22.2857 6.4804C21.8124 6.4804 21.4286 6.09664 21.4286 5.62326C21.4286 5.14987 21.8124 4.76611 22.2857 4.76611C22.7591 4.76611 23.1429 5.14987 23.1429 5.62326C23.1429 6.09664 22.7591 6.4804 22.2857 6.4804Z" stroke="#F4F4F4" style="stroke:#F4F4F4;stroke:color(display-p3 0.9569 0.9569 0.9569);stroke-opacity:1;" stroke-width="1.6" stroke-linecap="round" stroke-linejoin="round"/>
</g>
<defs>
<clipPath id="clip0_173_4820">
<rect width="24" height="24" fill="white" style="fill:white;fill-opacity:1;" transform="matrix(-1 0 0 1 24 0)"/>
</clipPath>
</defs>
</svg>
