<svg width="23" height="25" viewBox="0 0 23 25" fill="none" xmlns="http://www.w3.org/2000/svg">
<path d="M1 6.14307H21.5714" stroke="#F4F4F4" style="stroke:#F4F4F4;stroke:color(display-p3 0.9569 0.9569 0.9569);stroke-opacity:1;" stroke-width="1.5" stroke-linecap="round" stroke-linejoin="round"/>
<path d="M3.57141 6.14307H19V21.5716C19 22.0263 18.8193 22.4624 18.4979 22.7838C18.1764 23.1052 17.7403 23.2859 17.2857 23.2859H5.2857C4.83103 23.2859 4.39501 23.1052 4.07351 22.7838C3.75203 22.4624 3.57141 22.0263 3.57141 21.5716V6.14307Z" stroke="#F4F4F4" style="stroke:#F4F4F4;stroke:color(display-p3 0.9569 0.9569 0.9569);stroke-opacity:1;" stroke-width="1.5" stroke-linecap="round" stroke-linejoin="round"/>
<path d="M7 6.14286V5.28571C7 4.14907 7.45153 3.05898 8.25525 2.25525C9.05898 1.45153 10.1491 1 11.2857 1C12.4224 1 13.5125 1.45153 14.3162 2.25525C15.1199 3.05898 15.5714 4.14907 15.5714 5.28571V6.14286" stroke="#F4F4F4" style="stroke:#F4F4F4;stroke:color(display-p3 0.9569 0.9569 0.9569);stroke-opacity:1;" stroke-width="1.5" stroke-linecap="round" stroke-linejoin="round"/>
<path d="M8.71429 11.2881V18.1479" stroke="#F4F4F4" style="stroke:#F4F4F4;stroke:color(display-p3 0.9569 0.9569 0.9569);stroke-opacity:1;" stroke-width="1.5" stroke-linecap="round" stroke-linejoin="round"/>
<path d="M13.8571 11.2881V18.1479" stroke="#F4F4F4" style="stroke:#F4F4F4;stroke:color(display-p3 0.9569 0.9569 0.9569);stroke-opacity:1;" stroke-width="1.5" stroke-linecap="round" stroke-linejoin="round"/>
</svg>
